<?xml version="1.0" encoding="UTF-8" standalone="no"?>
<!-- Created with Inkscape (http://www.inkscape.org/) -->

<svg
   xmlns:dc="http://purl.org/dc/elements/1.1/"
   xmlns:cc="http://creativecommons.org/ns#"
   xmlns:rdf="http://www.w3.org/1999/02/22-rdf-syntax-ns#"
   xmlns:svg="http://www.w3.org/2000/svg"
   xmlns="http://www.w3.org/2000/svg"
   xmlns:sodipodi="http://sodipodi.sourceforge.net/DTD/sodipodi-0.dtd"
   xmlns:inkscape="http://www.inkscape.org/namespaces/inkscape"
   version="1.1"
   id="svg3721"
   width="357.60001"
   height="308"
   viewBox="0 0 357.60001 308"
   sodipodi:docname="CopyRight.svg"
   inkscape:version="0.92.4 (5da689c313, 2019-01-14)">
  <metadata
     id="metadata3727">
    <rdf:RDF>
      <cc:Work
         rdf:about="">
        <dc:format>image/svg+xml</dc:format>
        <dc:type
           rdf:resource="http://purl.org/dc/dcmitype/StillImage" />
        <dc:title></dc:title>
      </cc:Work>
    </rdf:RDF>
  </metadata>
  <defs
     id="defs3725" />
  <sodipodi:namedview
     pagecolor="#ffffff"
     bordercolor="#666666"
     borderopacity="1"
     objecttolerance="10"
     gridtolerance="10"
     guidetolerance="10"
     inkscape:pageopacity="0"
     inkscape:pageshadow="2"
     inkscape:window-width="1920"
     inkscape:window-height="1125"
     id="namedview3723"
     showgrid="false"
     inkscape:zoom="2.0708127"
     inkscape:cx="240.70471"
     inkscape:cy="159.79542"
     inkscape:window-x="-9"
     inkscape:window-y="-9"
     inkscape:window-maximized="1"
     inkscape:current-layer="svg3721" />
  <path
     style="fill:#000000;stroke-width:0.80000001"
     d="m 158.21969,290.50698 c -16.84405,-2.60509 -25.44116,-4.95629 -38.81072,-10.61421 -32.362602,-13.69567 -59.388892,-40.8281 -73.426392,-73.71476 -7.41521,-17.37214 -10.06109,-29.82011 -10.70085,-50.34382 -0.69757,-22.37851 2.08586,-38.31574 10.07658,-57.695996 15.11289,-36.653967 45.63943,-65.770127 82.522342,-78.709627 61.81645,-21.6868502 128.80868,0.929 164.71386,55.605627 15.13243,23.04375 22.42518,47.889296 22.42518,76.399996 0,31.2099 -9.43844,59.63855 -27.96163,84.2207 -21.85108,28.99855 -54.99937,48.76249 -90.84672,54.16537 -7.30548,1.10108 -32.38176,1.55435 -37.99165,0.68672 z m 30.42099,-17.89308 c 51.29536,-6.20694 92.80214,-42.86317 105.05684,-92.77971 5.59656,-22.79621 4.60091,-44.70324 -3.07016,-67.55229 -14.01778,-41.753313 -50.55199,-73.202723 -93.9969,-80.914463 -50.36709,-8.94048 -100.585992,14.16146 -126.898562,58.376467 -7.25354,12.188686 -13.19074,28.678946 -15.59975,43.327546 -1.50332,9.14126 -1.29504,29.45212 0.39749,38.76274 3.35805,18.47271 12.26441,38.8575 23.20454,53.11037 26.228802,34.171 69.336722,52.69945 110.906502,47.66934 z m -21.57447,-51.22182 c -7.2015,-0.90123 -16.03085,-3.25758 -22.65776,-6.0468 -14.77165,-6.21731 -27.77144,-19.58468 -33.57091,-34.52017 -4.60379,-11.85623 -5.727,-17.91999 -5.74053,-30.99092 -0.011,-10.61659 0.23988,-12.92227 2.17628,-20 6.759,-24.70492 21.88696,-41.324506 44.51465,-48.903796 26.32684,-8.818327 55.38533,-3.50197 74.04683,13.54716 l 3.67407,3.35663 -8.37664,8.318006 -8.37664,8.31801 -3.93711,-2.89011 c -9.76684,-7.16952 -21.45512,-10.64796 -33.33072,-9.91925 -27.25601,1.67249 -44.74641,20.50952 -44.72951,48.17335 0.017,27.70723 16.84459,45.8486 43.93503,47.36496 6.00773,0.33628 9.6199,0.10788 14.11695,-0.89262 7.04495,-1.56735 17.51375,-6.40795 21.58017,-9.97831 1.56229,-1.37172 3.10481,-2.49403 3.4278,-2.49403 0.7712,0 17.20152,16.92168 17.20152,17.71594 0,1.48629 -10.64139,9.09768 -17.25711,12.34337 -13.42742,6.58752 -31.18739,9.43945 -46.69637,7.49858 z"
     id="path3737"
     inkscape:connector-curvature="0" />
</svg>
